<svg width="36" height="40" viewBox="0 0 36 40" fill="none" xmlns="http://www.w3.org/2000/svg">
<g clip-path="url(#clip0_2725_126)">
<path fill-rule="evenodd" clip-rule="evenodd" d="M5.0005 21.9186C5.0005 14.739 10.8205 8.91861 18.0005 8.91861C25.1798 8.91861 31.0005 14.7393 31.0005 21.9186C31.0005 22.2034 30.9913 22.4866 30.973 22.768C30.9906 22.8425 31 22.9201 31 23C31 23.1427 30.9701 23.2785 30.9162 23.4013C30.5434 26.6633 28.9501 29.6378 26.4633 31.775C26.1965 32.0043 25.829 32.0765 25.4953 31.9653C23.0684 31.1563 20.5532 30.7366 18.0005 30.7366C15.4473 30.7366 12.9331 31.1562 10.5046 31.9653C10.171 32.0765 9.80343 32.0042 9.53671 31.775C7.05095 29.6387 5.45833 26.6654 5.08506 23.4042C5.03038 23.2806 5 23.1439 5 23C5 22.919 5.00963 22.8402 5.02782 22.7648C5.00967 22.4844 5.0005 22.2023 5.0005 21.9186ZM28.9993 22H27L26.8834 22.0067C26.386 22.0645 26 22.4872 26 23C26 23.5523 26.4477 24 27 24H28.8027C28.3758 26.2182 27.2736 28.2408 25.6464 29.8144L25.568 29.887L24.9955 29.7184C22.7193 29.0711 20.3754 28.7366 18.0005 28.7366L17.4074 28.7436C15.0376 28.7991 12.703 29.1873 10.432 29.888L10.3537 29.8145C8.72679 28.241 7.6249 26.2185 7.19822 24H9L9.11662 23.9933C9.61396 23.9355 10 23.5128 10 23C10 22.4477 9.55228 22 9 22H7.0008L7.0005 21.9186C7.0005 16.1808 11.3936 11.4689 17 10.9635V12.9189L17.0067 13.0355C17.0645 13.5329 17.4872 13.9189 18 13.9189C18.5523 13.9189 19 13.4712 19 12.9189V10.9634C24.6064 11.4685 29.0005 16.1808 29.0005 21.9186L28.9993 22ZM20 24.582C20 25.686 19.104 26.582 18 26.582C16.896 26.582 16 25.686 16 24.582C16 23.833 16.918 20.119 17.51 17.8C17.64 17.291 18.36 17.291 18.49 17.8C19.082 20.119 20 23.833 20 24.582Z" fill="#08A652"/>
</g>
<defs>
<clipPath id="clip0_2725_126">
<rect width="36" height="40" fill="white"/>
</clipPath>
</defs>
</svg>
