<svg width="36" height="40" viewBox="0 0 36 40" fill="none" xmlns="http://www.w3.org/2000/svg">
<g clip-path="url(#clip0_2725_40)">
<path fill-rule="evenodd" clip-rule="evenodd" d="M12.3369 11C14.8222 11 16.8369 13.0147 16.8369 15.5C16.8369 17.9853 14.8222 20 12.3369 20C9.85163 20 7.83691 17.9853 7.83691 15.5C7.83691 13.0147 9.85163 11 12.3369 11ZM12.3369 13C10.9562 13 9.83691 14.1193 9.83691 15.5C9.83691 16.8807 10.9562 18 12.3369 18C13.7176 18 14.8369 16.8807 14.8369 15.5C14.8369 14.1193 13.7176 13 12.3369 13ZM23.3369 22C25.8222 22 27.8369 24.0147 27.8369 26.5C27.8369 28.9853 25.8222 31 23.3369 31C20.8516 31 18.8369 28.9853 18.8369 26.5C18.8369 24.0147 20.8516 22 23.3369 22ZM23.3369 24C21.9562 24 20.8369 25.1193 20.8369 26.5C20.8369 27.8807 21.9562 29 23.3369 29C24.7176 29 25.8369 27.8807 25.8369 26.5C25.8369 25.1193 24.7176 24 23.3369 24ZM9.54402 30.7071L27.544 12.7071C27.9345 12.3166 27.9345 11.6834 27.544 11.2929C27.1535 10.9024 26.5203 10.9024 26.1298 11.2929L8.12981 29.2929C7.73928 29.6834 7.73928 30.3166 8.12981 30.7071C8.52033 31.0976 9.1535 31.0976 9.54402 30.7071Z" fill="#08A652"/>
</g>
<defs>
<clipPath id="clip0_2725_40">
<rect width="36" height="40" fill="white"/>
</clipPath>
</defs>
</svg>
